<svg xmlns="http://www.w3.org/2000/svg" version="1.1" xmlns:xlink="http://www.w3.org/1999/xlink" xmlns:svgjs="http://svgjs.dev/svgjs" width="100%" height="100%" viewBox="0 0 1000 600"><rect width="1000" height="600" x="0" y="0" fill="#80b9ad"/><g><rect width="333.3333333333333" height="333.3333333333333" rx="13.333333333333334" ry="13.333333333333334" y="318.7607984782917" fill="#3396d3" transform="matrix(0.421530348641412,0,0,0.4215303486414119,0,95.37759780937154)" x="296.5385437011719"/><path d="M491.38058281690684 521.0567706016229L491.38058281690684 521.0567706016229Q491.38058281690684 512.3652898624032 486.20023005843143 506.8683599909099Q481.0198772999561 501.3714301194166 473.249348162243 497.14080869999503Q465.47881902452997 492.8814075430264 456.3556422221039 489.1688213994524Q447.26124515722495 485.42745551833127 439.49071601951186 480.1319838096676Q431.7201868817988 474.865291838551 426.53983412332343 467.0947627008379Q421.3594813648481 459.32423356312484 421.3594813648481 447.2943032684432L421.3594813648481 447.2943032684432Q421.3594813648481 430.3142581156628 433.1591737591531 420.35646892437126Q444.9588661534581 410.4274594706268 466.71634773905464 410.4274594706268L466.71634773905464 410.4274594706268Q479.3794322597722 410.4274594706268 489.7401377767229 412.2693626736403Q500.1008432936737 414.14004561420086 505.88557054063784 417.04679910645643L505.88557054063784 417.04679910645643L500.7052177821625 432.18494105622335Q495.9565610868934 429.88256205245654 486.71826533427895 427.8104209490664Q477.5087493192117 425.73827984567623 465.91051508773626 425.73827984567623L465.91051508773626 425.73827984567623Q452.21136001532363 425.73827984567623 445.39056221666436 431.8683639432054Q438.54098468045805 437.9696683031875 438.54098468045805 446.25823271674807L438.54098468045805 446.25823271674807Q438.54098468045805 454.3453389674791 443.72133743893346 459.727149888784Q448.9016901974088 465.10896081008906 456.67221933512184 469.36836196705764Q464.44274847283486 473.6277631240263 473.56592527526095 477.7720453308066Q482.68910207768704 481.9163275375869 490.45963121540007 487.3844776715331Q498.2301603531131 492.8814075430264 503.4105131115885 500.5655974680982Q508.5908658700639 508.22100765562294 508.5908658700639 519.6177837242687L508.5908658700639 519.6177837242687Q508.5908658700639 528.9424186895244 505.2811960521491 536.3963707142195Q501.94274649668716 543.8503227389147 495.5248650236871 549.2609133977667Q489.10698355068706 554.6427243190717 479.98380674826103 557.5494778113273Q470.86062994583494 560.4274515660359 459.2623957143595 560.4274515660359L459.2623957143595 560.4274515660359Q443.72133743893346 560.4274515660359 433.56209008481227 558.0675130871748Q423.43162246823823 555.6787948707668 417.8195736465566 552.7720413785111L417.8195736465566 552.7720413785111L423.63308063106786 537.230983103085Q428.3817373263369 539.936278432511 437.7063722915926 542.5264548117486Q447.0310072568482 545.1166311909864 458.6580212258707 545.1166311909864L458.6580212258707 545.1166311909864Q465.47881902452997 545.1166311909864 471.4937841718708 543.7639835262734Q477.5087493192117 542.4113358615604 481.85448968882156 539.4182431566635Q486.20023005843143 536.3963707142195 488.7904064376691 531.84917218178Q491.38058281690684 527.2731939117934 491.38058281690684 521.0567706016229Z " fill="#074799" transform="matrix(0.421530348641412,0,0,0.4215303486414119,0,95.37759780937154)"/><path d="M792.4772234675752 527.530713149597L780.6435354282248 495.61630737551906L738.1976041982773 495.61630737551906L726.6837455653958 527.530713149597L713.2052205784912 527.530713149597L756.7933996886849 410.5873751699944L763.030073114829 410.5873751699944L806.7781669282572 527.530713149597L792.4772234675752 527.530713149597ZM755.3084774443648 449.0811287342902L742.6295259736323 483.78261933616875L776.5314430593387 483.78261933616875L763.6925768853717 448.73845437021635L759.5804845164855 431.3077517176598L759.4205698132511 431.3077517176598L755.3084774443648 449.0811287342902ZM820.7592809824703 560.4274521006865L820.7592809824703 445.2888657718729L829.8058841940199 445.2888657718729L832.2731396153516 455.1578874571998L832.9356433858944 455.1578874571998Q836.7279063483116 449.40095814075914 842.7361301984065 446.36257877930433Q848.7215090908963 443.3241994178495 856.4659497189654 443.3241994178495L856.4659497189654 443.3241994178495Q872.9143191945102 443.3241994178495 880.9785892290482 453.01046144233703Q889.0200143059811 462.71956842442944 889.0200143059811 484.76495251318045L889.0200143059811 484.76495251318045Q889.0200143059811 495.13656326581565 886.3243093086002 503.42928287640285Q883.6057593536144 511.74484744459494 878.6712485109509 517.5017767610357Q873.7367376682874 523.2587060774763 866.7461806411809 526.3884652693507Q859.7556236140744 529.4953795036204 851.1887645122281 529.4953795036204L851.1887645122281 529.4953795036204Q845.1120057893185 529.4953795036204 841.5710373605554 528.7643408602628Q838.0300689317922 528.0333022169052 833.9179765629061 526.2057056085114L833.9179765629061 526.2057056085114L833.9179765629061 560.4274521006865L820.7592809824703 560.4274521006865ZM853.9986942976337 454.83805805073087L853.9986942976337 454.83805805073087Q845.6145948566268 454.83805805073087 840.7486188867782 459.17859999566633Q835.9054878745344 463.5419868982067 833.9179765629061 472.42867540652185L833.9179765629061 472.42867540652185L833.9179765629061 513.229769688915Q836.8878210515461 515.5142654494073 840.6800840139634 516.7478931600731Q844.4495020187758 517.981520870739 850.7090204025247 517.981520870739L850.7090204025247 517.981520870739Q862.0629643321716 517.981520870739 868.7108469952044 509.52888655691737Q875.3815746158419 501.0534072854908 875.3815746158419 484.605037809946L875.3815746158419 484.605037809946Q875.3815746158419 477.8657753164936 874.2164817779909 472.3372955761022Q873.0742338977446 466.8316607933156 870.5155986459932 462.97086295808356Q867.9798083518468 459.11006512285155 863.9362508557754 456.96263910798876Q859.9155383173088 454.83805805073087 853.9986942976337 454.83805805073087ZM905.1485543750571 486.40978946073494L905.1485543750571 486.40978946073494Q905.1485543750571 465.529498209835 914.4464521202609 454.4268488138423Q923.7443498654646 443.3241994178495 941.1750525180212 443.3241994178495L941.1750525180212 443.3241994178495Q950.3815704328052 443.3241994178495 957.2122127566773 446.36257877930433Q964.0428550805494 449.40095814075914 968.4747768559046 455.0665076267801Q972.9066986312597 460.75490207040605 975.0541246461224 468.7277922745243Q977.2015506609853 476.70068247864253 977.2015506609853 486.40978946073494L977.2015506609853 486.40978946073494Q977.2015506609853 507.29008071163486 967.9036529157814 518.3927301076276Q958.6057551705777 529.4953795036204 941.1750525180212 529.4953795036204L941.1750525180212 529.4953795036204Q931.9685346032371 529.4953795036204 925.137892279365 526.4570001421655Q918.3072499554929 523.4186207807107 913.8753281801378 517.7530712946898Q909.4205614471778 512.0646768510638 907.2959803899199 504.0917866469456Q905.1485543750571 496.11889644282735 905.1485543750571 486.40978946073494ZM918.8098390228012 486.40978946073494L918.8098390228012 486.40978946073494Q918.8098390228012 492.6693078444839 920.0434667334671 498.42623716092464Q921.2770944441329 504.1831664773653 923.9042645686991 508.45517354948595Q926.5314346932653 512.7271806216066 930.803441765386 515.3543507461728Q935.0754488375067 517.981520870739 941.1750525180212 517.981520870739L941.1750525180212 517.981520870739Q963.5402660132411 518.1642805315784 963.5402660132411 486.40978946073494L963.5402660132411 486.40978946073494Q963.5402660132411 479.99035637375147 962.3066383025753 474.2334270573108Q961.0730105919093 468.4764977408701 958.4458404673433 464.2044906687495Q955.8186703427771 459.9324835966288 951.5238183130515 457.3738483448774Q947.2518112409308 454.83805805073087 941.1750525180212 454.83805805073087L941.1750525180212 454.83805805073087Q918.8098390228012 454.6552983898915 918.8098390228012 486.40978946073494ZM987.0705723463121 456.8027244047543L987.0705723463121 445.2888657718729L999.8865935626742 445.2888657718729L999.8865935626742 429.0004109995626L1013.04528914311 425.23099299475024L1013.04528914311 445.2888657718729L1035.41050263833 445.2888657718729L1035.41050263833 456.8027244047543L1013.04528914311 456.8027244047543L1013.04528914311 502.35556986897143Q1013.04528914311 510.9224289708177 1015.1927151579729 514.4633973995808Q1017.3172962152306 517.981520870739 1022.4345667187334 517.981520870739L1022.4345667187334 517.981520870739Q1026.7065737908542 517.981520870739 1029.6535733218893 517.090567524147Q1032.6234178105292 516.1767692199501 1036.2329211121073 514.69184697563L1036.2329211121073 514.69184697563L1039.2027656007472 524.7436283217963Q1034.7708438253921 526.8682093790542 1029.493658618655 528.1932169201398Q1024.2393183695226 529.4953795036204 1018.139714689008 529.4953795036204L1018.139714689008 529.4953795036204Q1008.1107783004466 529.4953795036204 1003.9986859315603 523.8298300175993Q999.8865935626742 518.1642805315784 999.8865935626742 504.8228252903032L999.8865935626742 504.8228252903032L999.8865935626742 456.8027244047543L987.0705723463121 456.8027244047543ZM1106.96090985695 511.4021730805211L1111.8954206996132 520.951365359379Q1106.96090985695 524.9035430250308 1099.4906087201398 527.2108837431281Q1091.997462625725 529.4953795036204 1083.6133631847183 529.4953795036204L1083.6133631847183 529.4953795036204Q1074.2469305666996 529.4953795036204 1067.3249084124077 526.4570001421655Q1060.425731215721 523.4186207807107 1055.9709644827608 517.7530712946898Q1051.5390427074058 512.0646768510638 1049.391616692543 504.1831664773653Q1047.267035635285 496.2788111460618 1047.267035635285 486.40978946073494L1047.267035635285 486.40978946073494Q1047.267035635285 465.34673854899563 1056.6334682533038 454.3354689834226Q1066.0227458289273 443.3241994178495 1083.4534484814837 443.3241994178495L1083.4534484814837 443.3241994178495Q1089.0504630946898 443.3241994178495 1094.6246327502913 444.5578271285154Q1100.2216473634976 445.79145483918126 1104.6764140964574 449.24104343752464Q1109.1083358718126 452.6906320358681 1111.8954206996132 459.0186852924319Q1114.7053504850187 465.34673854899563 1114.7053504850187 475.71834930163084L1114.7053504850187 475.71834930163084Q1114.7053504850187 481.15544921160256 1113.723017308007 487.7347970018205L1113.723017308007 487.7347970018205L1060.9054753254245 487.7347970018205Q1060.9054753254245 494.95380360497626 1062.3903975697444 500.5508182181825Q1063.8753198140644 506.1478328313887 1067.005079005939 510.0086306666208Q1070.1348381978132 513.8694285018528 1075.1378839132917 515.925474686296Q1080.1637745863748 517.981520870739 1087.4056261471355 517.981520870739L1087.4056261471355 517.981520870739Q1092.9797958027366 517.981520870739 1098.5768104159429 516.0168545167156Q1104.1738250291492 514.0521881626921 1106.96090985695 511.4021730805211L1106.96090985695 511.4021730805211ZM1083.6133631847183 454.83805805073087L1083.6133631847183 454.83805805073087Q1073.9042562026257 454.83805805073087 1068.0787920133703 459.9324835966288Q1062.23048286651 465.0269091425267 1061.0882349862636 477.36318624918533L1061.0882349862636 477.36318624918533L1101.8664843110519 477.36318624918533Q1101.8664843110519 464.8669944392922 1097.091888171623 459.84110376620913Q1092.3401369897988 454.83805805073087 1083.6133631847183 454.83805805073087ZM1183.6285875790727 527.530713149597L1156.1461035803497 490.5218818296212L1148.5844226131203 490.5218818296212L1148.5844226131203 527.530713149597L1135.4257270326843 527.530713149597L1135.4257270326843 412.39212682078335L1148.5844226131203 412.39212682078335L1148.5844226131203 482.4576117950832L1155.3236851065726 480.150271076986L1180.8186577936672 445.2888657718729L1196.1247793889656 445.2888657718729L1170.9496361083402 478.34551942619703L1164.2103736148879 483.78261933616875L1172.4345583526601 490.36196712638673L1199.894197393778 527.530713149597L1183.6285875790727 527.530713149597ZM1306.4887695783502 498.24347750008525L1306.4887695783502 498.24347750008525Q1306.4887695783502 491.34430030339837 1302.376677209464 486.980913400858Q1298.2645848405778 482.61752649831766 1292.0964462872485 479.25931773039395Q1285.9283077339194 475.8782640048653 1278.6864561731586 472.9312644738302Q1271.444604612398 469.96141998519016 1265.2764660590688 465.75794778588426Q1259.1083275057392 461.5773205441833 1254.996235136853 455.409181990854Q1250.8841427679668 449.24104343752464 1250.8841427679668 439.69185115866674L1250.8841427679668 439.69185115866674Q1250.8841427679668 426.21332617176193 1260.2734203435905 418.30897084045847Q1269.639852961609 410.42746046675995 1286.9106409109309 410.42746046675995L1286.9106409109309 410.42746046675995Q1296.9395772994924 410.42746046675995 1305.1637620372649 411.889537753475Q1313.387946775037 413.37445999779504 1318.0026282112317 415.6818007158923L1318.0026282112317 415.6818007158923L1313.8905358423453 427.6982484160819Q1310.0982728799281 425.8706518076881 1302.7878864463528 424.2258148601336Q1295.4775000127775 422.5809779125791 1286.2481371403883 422.5809779125791L1286.2481371403883 422.5809779125791Q1275.3967822780496 422.5809779125791 1269.982527325683 427.4469538824278Q1264.545427415711 432.29008489467157 1264.545427415711 438.8694326848895L1264.545427415711 438.8694326848895Q1264.545427415711 445.2888657718729 1268.6575197845973 449.5608728439936Q1272.7696121534834 453.8328799161143 1278.9377507068127 457.21393364164294Q1285.105889260142 460.5949873671716 1292.3477408209028 463.88466126228053Q1299.5895923816634 467.17433515738946 1305.7577309349927 471.51487710232493Q1311.925869488322 475.8782640048653 1316.0379618572083 481.9778676853798Q1320.1500542260944 488.05462640828944 1320.1500542260944 497.10122961983905L1320.1500542260944 497.10122961983905Q1320.1500542260944 504.5029958838342 1317.5000391439235 510.41983990350934Q1314.872869019357 516.3366839231845 1309.7784434734594 520.6315359529101Q1304.6840179275614 524.9035430250308 1297.4421663668006 527.2108837431281Q1290.2003148060398 529.4953795036204 1280.993796891256 529.4953795036204L1280.993796891256 529.4953795036204Q1268.6575197845973 529.4953795036204 1260.5932497500594 527.6220929800166Q1252.5289797155215 525.725961498808 1248.0970579401662 523.4186207807107L1248.0970579401662 523.4186207807107L1252.7117393763608 511.08234367405214Q1256.481157381173 513.229769688915 1263.8829236451684 515.285815873358Q1271.2846899091635 517.3418620578011 1280.4912078239477 517.3418620578011L1280.4912078239477 517.3418620578011Q1285.9283077339194 517.3418620578011 1290.7029038733483 516.2681490503697Q1295.4775000127775 515.1944360429384 1298.9270886111208 512.8185604520263Q1302.376677209464 510.41983990350934 1304.4327233939073 506.81033660193145Q1306.4887695783502 503.1779883427487 1306.4887695783502 498.24347750008525ZM1406.5039939727048 527.530713149597L1393.345298392269 527.530713149597L1393.345298392269 480.65286014429427Q1393.345298392269 474.2334270573108 1392.5914147913063 469.39029604506703Q1391.8603761479485 464.5243200752184 1389.8728648363203 461.3260260105291Q1387.908198482297 458.12773194583986 1384.5271447567684 456.48289499828536Q1381.1689359888446 454.83805805073087 1375.7318360788727 454.83805805073087L1375.7318360788727 454.83805805073087Q1368.0102404084087 454.83805805073087 1361.7507220246598 459.84110376620913Q1355.5140485985157 464.8669944392922 1353.686451990122 472.7485048129908L1353.686451990122 472.7485048129908L1353.686451990122 527.530713149597L1340.527756409686 527.530713149597L1340.527756409686 412.39212682078335L1353.686451990122 412.39212682078335L1353.686451990122 454.495383686657L1354.3489557606645 454.495383686657Q1358.6209628327852 449.40095814075914 1364.6291866828801 446.36257877930433Q1370.637410532975 443.3241994178495 1379.5240990412904 443.3241994178495L1379.5240990412904 443.3241994178495Q1386.423276237977 443.3241994178495 1391.517701783875 444.87765653498434Q1396.6349722873779 446.4311136521191 1399.9931810553016 450.38329131777084Q1403.3742347808302 454.3354689834226 1404.927691897965 461.00619660406016Q1406.5039939727048 467.65407926709287 1406.5039939727048 477.8657753164936L1406.5039939727048 477.8657753164936L1406.5039939727048 527.530713149597ZM1433.3011292432798 461.2346461801094L1429.1890368743934 451.36562449478254Q1435.4485552581427 447.5962064899702 1443.7412748687298 445.79145483918126Q1452.056839436922 443.96385823078737 1461.1034426484716 443.96385823078737L1461.1034426484716 443.96385823078737Q1469.6474567927125 443.96385823078737 1474.8332621690306 446.2711989488846Q1480.0190675453482 448.5785396669819 1482.7376175003337 452.27942279897945Q1485.4561674553197 455.98030593097707 1486.3471208019118 460.4122277063322Q1487.2609191061088 464.8669944392922 1487.2609191061088 469.29891621464736L1487.2609191061088 469.29891621464736Q1487.2609191061088 479.1679378999743 1486.7583300388005 488.55721547559773Q1486.278585929097 497.9236480936163 1486.278585929097 506.30774753462316L1486.278585929097 506.30774753462316Q1486.278585929097 512.4073512151377 1486.7583300388005 517.8216061675046Q1487.2609191061088 523.2587060774763 1488.5630816895896 527.8505425560659L1488.5630816895896 527.8505425560659L1478.8768196651017 527.8505425560659L1475.4043861091536 516.3366839231845L1474.5819676353763 516.3366839231845Q1473.119890348661 518.6440246412817 1470.8810845033786 520.8599855289593Q1468.6651236157008 523.0987913742418 1465.5353644238266 524.8121631946111Q1462.4284501895572 526.5483799725853 1458.3163578206709 527.6906278528314Q1454.2042654517845 528.8557206906826 1448.9270802450474 528.8557206906826L1448.9270802450474 528.8557206906826Q1443.672739995915 528.8557206906826 1439.14943839014 527.2108837431281Q1434.6261367843654 525.5660467955736 1431.3364628892564 522.5048224765138Q1428.0467889941474 519.4664431150591 1426.1506575129388 515.1944360429384Q1424.2545260317302 510.9224289708177 1424.2545260317302 505.4853290608459L1424.2545260317302 505.4853290608459Q1424.2545260317302 498.24347750008525 1427.22437052037 493.4003464878415Q1430.1713700514051 488.55721547559773 1435.517090130957 485.67875081737736Q1440.8628102105095 482.80028615915705 1448.3559563049243 481.5666584484912Q1455.8491023993392 480.3330307378253 1464.8957056108889 480.3330307378253L1464.8957056108889 480.3330307378253Q1467.180201371381 480.3330307378253 1469.4190072166634 480.3330307378253Q1471.6349681043412 480.3330307378253 1473.9423088224385 480.65286014429427L1473.9423088224385 480.65286014429427Q1474.422052932142 475.71834930163084 1474.422052932142 471.7661716359791L1474.422052932142 471.7661716359791Q1474.422052932142 462.71956842442944 1470.8125496305638 459.11006512285155Q1467.180201371381 455.4777168636687 1457.6538540501278 455.4777168636687L1457.6538540501278 455.4777168636687Q1454.8439242647223 455.4777168636687 1451.6456302000333 455.88892610055734Q1448.447336135344 456.30013533744597 1445.0662824098154 457.05401893840843Q1441.6852286842864 457.785057581766 1438.6468493228317 458.8587705891974Q1435.608469961377 459.9324835966288 1433.3011292432798 461.2346461801094L1433.3011292432798 461.2346461801094ZM1452.5594285042303 517.3418620578011L1452.5594285042303 517.3418620578011Q1457.1512649828196 517.3418620578011 1460.7836132420025 516.1082343471353Q1464.3931165435802 514.8746066364695 1467.0202866681466 512.9784751552609Q1469.6474567927125 511.08234367405214 1471.3836735706868 508.7750029559549Q1473.119890348661 506.46766223785767 1473.9423088224385 504.34308118059977L1473.9423088224385 504.34308118059977L1473.9423088224385 490.6817965328556Q1471.6349681043412 490.5218818296212 1469.2362475558243 490.43050199920145Q1466.8603719649122 490.36196712638673 1464.553031246815 490.36196712638673L1464.553031246815 490.36196712638673Q1459.458605700917 490.36196712638673 1454.6154746886732 490.93309106650975Q1449.7494987188247 491.5042150066329 1446.048615586827 493.0805170813726Q1442.3477324548294 494.63397419850736 1440.1317715671516 497.3525241534932Q1437.9158106794744 500.07107410847914 1437.9158106794744 504.1831664773653L1437.9158106794744 504.1831664773653Q1437.9158106794744 509.940095793806 1442.0279030483603 513.6409789258036Q1446.1399954172466 517.3418620578011 1452.5594285042303 517.3418620578011ZM1512.0933880226603 522.7561170101679L1512.0933880226603 412.39212682078335L1525.2520836030963 412.39212682078335L1525.2520836030963 453.3531358064109L1525.9145873736388 453.3531358064109Q1529.6840053784513 448.5785396669819 1535.532314525312 445.9513695424157Q1541.380623672172 443.3241994178495 1548.2798008688587 443.3241994178495L1548.2798008688587 443.3241994178495Q1564.2255812770954 443.3241994178495 1572.2213164388186 453.5130505096453Q1580.194206642937 463.70190160144114 1580.194206642937 485.0847819196494L1580.194206642937 485.0847819196494Q1580.194206642937 506.650421898697 1569.6626811870674 517.8216061675046Q1559.1311557311974 529.0156353939169 1540.0556161310865 529.0156353939169L1540.0556161310865 529.0156353939169Q1530.8490982163025 529.0156353939169 1523.3559521218876 527.0281240822886Q1515.8856509850775 525.0634577282652 1512.0933880226603 522.7561170101679L1512.0933880226603 522.7561170101679ZM1545.972460150762 454.83805805073087L1545.972460150762 454.83805805073087Q1537.7482754129892 454.83805805073087 1532.6538498670911 459.42989452932045Q1527.5594243211935 464.044575965515 1525.2520836030963 472.42867540652185L1525.2520836030963 472.42867540652185L1525.2520836030963 513.8694285018528Q1528.381842794971 515.6970251102466 1532.813764570326 516.5879784568388Q1537.2685313032857 517.5017767610357 1542.0202824851099 517.5017767610357L1542.0202824851099 517.5017767610357Q1553.2143117115224 517.5017767610357 1559.88503933216 509.59742142973215Q1566.5329219951927 501.7159110560336 1566.5329219951927 484.9248672164149L1566.5329219951927 484.9248672164149Q1566.5329219951927 478.5054341294315 1565.3906741149467 472.9312644738302Q1564.2255812770954 467.33424986062397 1561.7583258557638 463.38207219497224Q1559.2910704344317 459.42989452932045 1555.4302725991997 457.1225538112232Q1551.5694747639677 454.83805805073087 1545.972460150762 454.83805805073087ZM1603.7016680184029 461.2346461801094L1599.5895756495165 451.36562449478254Q1605.8490940332658 447.5962064899702 1614.1646586014576 445.79145483918126Q1622.4573782120447 443.96385823078737 1631.5039814235947 443.96385823078737L1631.5039814235947 443.96385823078737Q1640.0708405254409 443.96385823078737 1645.2338009441537 446.2711989488846Q1650.4196063204713 448.5785396669819 1653.1381562754573 452.27942279897945Q1655.8567062304428 455.98030593097707 1656.747659577035 460.4122277063322Q1657.6614578812319 464.8669944392922 1657.6614578812319 469.29891621464736L1657.6614578812319 469.29891621464736Q1657.6614578812319 479.1679378999743 1657.1588688139236 488.55721547559773Q1656.6791247042202 497.9236480936163 1656.6791247042202 506.30774753462316L1656.6791247042202 506.30774753462316Q1656.6791247042202 512.4073512151377 1657.1588688139236 517.8216061675046Q1657.6614578812319 523.2587060774763 1658.9864654223175 527.8505425560659L1658.9864654223175 527.8505425560659L1649.2773584402248 527.8505425560659L1645.8277698418815 516.3366839231845L1645.0053513681046 516.3366839231845Q1643.5204291237842 518.6440246412817 1641.3044682361065 520.8599855289593Q1639.0656623908244 523.0987913742418 1635.9587481565545 524.8121631946111Q1632.8289889646803 526.5483799725853 1628.716896595794 527.6906278528314Q1624.6048042269076 528.8557206906826 1619.3276190201705 528.8557206906826L1619.3276190201705 528.8557206906826Q1614.073278771038 528.8557206906826 1609.549977165263 527.2108837431281Q1605.0266755594885 525.5660467955736 1601.7370016643795 522.5048224765138Q1598.4473277692705 519.4664431150591 1596.5511962880619 515.1944360429384Q1594.6550648068533 510.9224289708177 1594.6550648068533 505.4853290608459L1594.6550648068533 505.4853290608459Q1594.6550648068533 498.24347750008525 1597.6249092954936 493.4003464878415Q1600.5947537841334 488.55721547559773 1605.9404738636854 485.67875081737736Q1611.2861939432373 482.80028615915705 1618.7564950800474 481.5666584484912Q1626.2496411744623 480.3330307378253 1635.296244386012 480.3330307378253L1635.296244386012 480.3330307378253Q1637.6035851041092 480.3330307378253 1639.819545991787 480.3330307378253Q1642.0355068794643 480.3330307378253 1644.3428475975616 480.65286014429427L1644.3428475975616 480.65286014429427Q1644.822591707265 475.71834930163084 1644.822591707265 471.7661716359791L1644.822591707265 471.7661716359791Q1644.822591707265 462.71956842442944 1641.213088405687 459.11006512285155Q1637.6035851041092 455.4777168636687 1628.0543928252514 455.4777168636687L1628.0543928252514 455.4777168636687Q1625.2673079974506 455.4777168636687 1622.0461689751564 455.88892610055734Q1618.847874910467 456.30013533744597 1615.4668211849385 457.05401893840843Q1612.1086124170147 457.785057581766 1609.0473880979553 458.8587705891974Q1606.0090087365002 459.9324835966288 1603.7016680184029 461.2346461801094L1603.7016680184029 461.2346461801094ZM1622.9599672793534 517.3418620578011L1622.9599672793534 517.3418620578011Q1627.5518037579432 517.3418620578011 1631.1841520171256 516.1082343471353Q1634.7936553187037 514.8746066364695 1637.4208254432697 512.9784751552609Q1640.0708405254409 511.08234367405214 1641.78421234581 508.7750029559549Q1643.5204291237842 506.46766223785767 1644.3428475975616 504.34308118059977L1644.3428475975616 504.34308118059977L1644.3428475975616 490.6817965328556Q1642.0355068794643 490.5218818296212 1639.6596312885522 490.43050199920145Q1637.2609107400353 490.36196712638673 1634.953570021938 490.36196712638673L1634.953570021938 490.36196712638673Q1629.85914447604 490.36196712638673 1625.0160134637963 490.93309106650975Q1620.1500374939478 491.5042150066329 1616.4491543619501 493.0805170813726Q1612.7482712299525 494.63397419850736 1610.5323103422752 497.3525241534932Q1608.3163494545975 500.07107410847914 1608.3163494545975 504.1831664773653L1608.3163494545975 504.1831664773653Q1608.3163494545975 509.940095793806 1612.4284418234834 513.6409789258036Q1616.5405341923702 517.3418620578011 1622.9599672793534 517.3418620578011ZM1748.447319403197 527.530713149597L1735.2886238227616 527.530713149597L1735.2886238227616 480.65286014429427Q1735.2886238227616 474.2334270573108 1734.5575851794038 469.39029604506703Q1733.8265465360464 464.5243200752184 1731.8390352244182 461.3260260105291Q1729.8743688703944 458.12773194583986 1726.4933151448658 456.48289499828536Q1723.135106376942 454.83805805073087 1717.6980064669706 454.83805805073087L1717.6980064669706 454.83805805073087Q1709.9764107965061 454.83805805073087 1703.7168924127573 459.84110376620913Q1697.4573740290084 464.8669944392922 1695.6526223782193 472.7485048129908L1695.6526223782193 472.7485048129908L1695.6526223782193 527.530713149597L1682.4939267977834 527.530713149597L1682.4939267977834 412.39212682078335L1695.6526223782193 412.39212682078335L1695.6526223782193 454.495383686657L1696.3151261487624 454.495383686657Q1700.5871332208826 449.40095814075914 1706.5953570709776 446.36257877930433Q1712.6035809210725 443.3241994178495 1721.4902694293878 443.3241994178495L1721.4902694293878 443.3241994178495Q1728.3894466260745 443.3241994178495 1733.4838721719725 444.87765653498434Q1738.57829771787 446.4311136521191 1741.959351443399 450.38329131777084Q1745.3404051689276 454.3354689834226 1746.8938622860624 461.00619660406016Q1748.447319403197 467.65407926709287 1748.447319403197 477.8657753164936L1748.447319403197 477.8657753164936L1748.447319403197 527.530713149597ZM1767.8655333673819 519.9690321823673L1767.8655333673819 519.9690321823673Q1767.8655333673819 515.5142654494073 1770.4241686191335 512.9784751552609Q1772.95995891328 510.41983990350934 1777.2319659854006 510.41983990350934L1777.2319659854006 510.41983990350934Q1781.6867327183609 510.41983990350934 1784.3139028429268 512.9784751552609Q1786.9410729674928 515.5142654494073 1786.9410729674928 519.9690321823673L1786.9410729674928 519.9690321823673Q1786.9410729674928 524.241039254488 1784.3139028429268 526.8682093790542Q1781.6867327183609 529.4953795036204 1777.2319659854006 529.4953795036204L1777.2319659854006 529.4953795036204Q1772.95995891328 529.4953795036204 1770.4241686191335 526.8682093790542Q1767.8655333673819 524.241039254488 1767.8655333673819 519.9690321823673ZM1859.4738133631245 512.0646768510638L1863.7686653928504 522.0936132396253Q1858.8341545501867 525.725961498808 1852.0720470991296 527.6220929800166Q1845.3327846056768 529.4953795036204 1837.931018341682 529.4953795036204L1837.931018341682 529.4953795036204Q1828.4046710204289 529.4953795036204 1821.8253232302109 526.4570001421655Q1815.245975439993 523.4186207807107 1811.042503240687 517.7530712946898Q1806.8390310413815 512.0646768510638 1804.9657445177777 504.0917866469456Q1803.069613036569 496.11889644282735 1803.069613036569 486.40978946073494L1803.069613036569 486.40978946073494Q1803.069613036569 465.529498209835 1812.276130951353 454.4268488138423Q1821.482648866137 443.3241994178495 1838.7534368154593 443.3241994178495L1838.7534368154593 443.3241994178495Q1846.6577921467629 443.3241994178495 1852.1634269295491 444.5578271285154Q1857.6690617123359 445.79145483918126 1862.1238284452957 448.07595059967355L1862.1238284452957 448.07595059967355L1858.3315654828784 459.42989452932045Q1854.5393025204612 457.3053134720626 1849.9474660418714 456.07168576139674Q1845.3327846056768 454.83805805073087 1840.0784443565449 454.83805805073087L1840.0784443565449 454.83805805073087Q1816.708052726708 454.83805805073087 1816.708052726708 486.40978946073494L1816.708052726708 486.40978946073494Q1816.708052726708 492.6693078444839 1817.941680437374 498.3348573305049Q1819.1753081480397 504.0004068165259 1822.05377280626 508.3637937190663Q1824.9322374644807 512.7271806216066 1829.638298731095 515.3543507461728Q1834.3215150401038 517.981520870739 1841.220692236791 517.981520870739L1841.220692236791 517.981520870739Q1847.1375362564659 517.981520870739 1851.84359752308 516.1767692199501Q1856.5268138320894 514.3720175691611 1859.4738133631245 512.0646768510638L1859.4738133631245 512.0646768510638ZM1873.4549274173378 486.40978946073494L1873.4549274173378 486.40978946073494Q1873.4549274173378 465.529498209835 1882.7528251625413 454.4268488138423Q1892.0507229077452 443.3241994178495 1909.481425560302 443.3241994178495L1909.481425560302 443.3241994178495Q1918.6879434750858 443.3241994178495 1925.5185857989582 446.36257877930433Q1932.34922812283 449.40095814075914 1936.781149898185 455.0665076267801Q1941.2359166311453 460.75490207040605 1943.360497688403 468.7277922745243Q1945.507923703266 476.70068247864253 1945.507923703266 486.40978946073494L1945.507923703266 486.40978946073494Q1945.507923703266 507.29008071163486 1936.210025958062 518.3927301076276Q1926.9121282128585 529.4953795036204 1909.481425560302 529.4953795036204L1909.481425560302 529.4953795036204Q1900.274907645518 529.4953795036204 1893.4442653216456 526.4570001421655Q1886.6136229977737 523.4186207807107 1882.1817012224183 517.7530712946898Q1877.7497794470632 512.0646768510638 1875.6023534322003 504.0917866469456Q1873.4549274173378 496.11889644282735 1873.4549274173378 486.40978946073494ZM1887.116212065082 486.40978946073494L1887.116212065082 486.40978946073494Q1887.116212065082 492.6693078444839 1888.3498397757476 498.42623716092464Q1889.5834674864136 504.1831664773653 1892.2106376109796 508.45517354948595Q1894.837807735546 512.7271806216066 1899.1326597652715 515.3543507461728Q1903.4046668373921 517.981520870739 1909.481425560302 517.981520870739L1909.481425560302 517.981520870739Q1931.8466390555218 518.1642805315784 1931.8466390555218 486.40978946073494L1931.8466390555218 486.40978946073494Q1931.8466390555218 479.99035637375147 1930.6130113448557 474.2334270573108Q1929.3793836341902 468.4764977408701 1926.7522135096237 464.2044906687495Q1924.1250433850578 459.9324835966288 1919.853036312937 457.3738483448774Q1915.5810292408164 454.83805805073087 1909.481425560302 454.83805805073087L1909.481425560302 454.83805805073087Q1887.116212065082 454.6552983898915 1887.116212065082 486.40978946073494ZM2027.5898563777555 527.530713149597L2014.4311607973195 527.530713149597L2014.4311607973195 480.9726895507632Q2014.4311607973195 474.39334176054524 2013.8600368571965 469.55021074830154Q2013.2660679594683 464.7070797360578 2011.621231011914 461.4174058409488Q2009.9763940643597 458.12773194583986 2006.9380147029046 456.48289499828536Q2003.8996353414495 454.83805805073087 1998.9651244987863 454.83805805073087L1998.9651244987863 454.83805805073087Q1991.403443531557 454.83805805073087 1986.3775528584738 459.42989452932045Q1981.3745071429958 464.044575965515 1979.3869958313671 470.94375316220186L1979.3869958313671 470.94375316220186L1979.3869958313671 527.530713149597L1966.2283002509316 527.530713149597L1966.2283002509316 445.2888657718729L1975.4348181657156 445.2888657718729L1977.9020735870472 455.31780216043427L1978.5645773575902 455.31780216043427Q1983.01934409055 450.06346191130194 1988.8448082798054 446.6824081857733Q1994.693117426666 443.3241994178495 2004.0595500446843 443.3241994178495L2004.0595500446843 443.3241994178495Q2011.963905375988 443.3241994178495 2016.966951091466 446.36257877930433Q2021.9928417645492 449.40095814075914 2024.77992659235 456.96263910798876L2024.77992659235 456.96263910798876Q2028.5721895547672 450.5432060210053 2035.2429171754047 446.9337027194274Q2041.8907998384375 443.3241994178495 2050.2748992794445 443.3241994178495L2050.2748992794445 443.3241994178495Q2057.196921433736 443.3241994178495 2061.9715175731653 444.87765653498434Q2066.723268754989 446.4311136521191 2069.8530279468637 450.38329131777084Q2072.982787138738 454.3354689834226 2074.3763295526383 461.07473147687494Q2075.769871966539 467.8139939703274 2075.769871966539 478.1856047229625L2075.769871966539 478.1856047229625L2075.769871966539 527.530713149597L2062.611176386103 527.530713149597L2062.611176386103 478.0256900197281Q2062.611176386103 472.10884600005295 2062.04005244598 467.7454590975126Q2061.4689285058566 463.38207219497224 2059.732711727883 460.5036075367519Q2058.0193399075133 457.6251428785315 2054.980960546058 456.23160046463124Q2051.919736226999 454.83805805073087 2046.985225384335 454.83805805073087L2046.985225384335 454.83805805073087Q2038.7610406465633 454.83805805073087 2034.1692041679735 459.42989452932045Q2029.554522731779 464.044575965515 2027.5898563777555 472.5885901097563L2027.5898563777555 472.5885901097563L2027.5898563777555 527.530713149597Z " fill="#074799" transform="matrix(0.421530348641412,0,0,0.4215303486414119,0,95.37759780937154)"/></g></svg>